<mxfile host="app.diagrams.net" modified="2023-12-17T19:37:07.335Z" agent="Mozilla/5.0 (Windows NT 10.0; Win64; x64) AppleWebKit/537.36 (KHTML, like Gecko) Chrome/118.0.5993.731 YaBrowser/23.11.1.731 Yowser/2.5 Safari/537.36" etag="gVrtuFHqkMrEpPh2b8uq" version="22.1.11" type="device">
  <diagram name="Страница — 1" id="uZ_nsQeErtob_AAaeL1L">
    <mxGraphModel dx="1400" dy="724" grid="1" gridSize="10" guides="1" tooltips="1" connect="1" arrows="1" fold="1" page="1" pageScale="1" pageWidth="827" pageHeight="1169" math="0" shadow="0">
      <root>
        <mxCell id="0" />
        <mxCell id="1" parent="0" />
        <mxCell id="ANgdTSNMqxyY6mDXdx_J-1" value="Message" style="swimlane;fontStyle=1;align=center;verticalAlign=top;childLayout=stackLayout;horizontal=1;startSize=26;horizontalStack=0;resizeParent=1;resizeParentMax=0;resizeLast=0;collapsible=1;marginBottom=0;whiteSpace=wrap;html=1;" vertex="1" parent="1">
          <mxGeometry x="320" y="70" width="380" height="80" as="geometry" />
        </mxCell>
        <mxCell id="ANgdTSNMqxyY6mDXdx_J-3" value="" style="line;strokeWidth=1;fillColor=none;align=left;verticalAlign=middle;spacingTop=-1;spacingLeft=3;spacingRight=3;rotatable=0;labelPosition=right;points=[];portConstraint=eastwest;strokeColor=inherit;" vertex="1" parent="ANgdTSNMqxyY6mDXdx_J-1">
          <mxGeometry y="26" width="380" height="8" as="geometry" />
        </mxCell>
        <mxCell id="ANgdTSNMqxyY6mDXdx_J-4" value="+virtual std::string makeString() const&lt;br&gt;+std::ostream&amp;amp; operator &amp;lt;&amp;lt; (std::ostream, const Message&amp;amp;)" style="text;strokeColor=none;fillColor=none;align=left;verticalAlign=top;spacingLeft=4;spacingRight=4;overflow=hidden;rotatable=0;points=[[0,0.5],[1,0.5]];portConstraint=eastwest;whiteSpace=wrap;html=1;" vertex="1" parent="ANgdTSNMqxyY6mDXdx_J-1">
          <mxGeometry y="34" width="380" height="46" as="geometry" />
        </mxCell>
        <mxCell id="ANgdTSNMqxyY6mDXdx_J-5" value="WinMessage" style="swimlane;fontStyle=1;align=center;verticalAlign=top;childLayout=stackLayout;horizontal=1;startSize=26;horizontalStack=0;resizeParent=1;resizeParentMax=0;resizeLast=0;collapsible=1;marginBottom=0;whiteSpace=wrap;html=1;" vertex="1" parent="1">
          <mxGeometry x="10" y="70" width="180" height="120" as="geometry" />
        </mxCell>
        <mxCell id="ANgdTSNMqxyY6mDXdx_J-6" value="- score:int&lt;br&gt;- health:int" style="text;strokeColor=none;fillColor=none;align=left;verticalAlign=top;spacingLeft=4;spacingRight=4;overflow=hidden;rotatable=0;points=[[0,0.5],[1,0.5]];portConstraint=eastwest;whiteSpace=wrap;html=1;" vertex="1" parent="ANgdTSNMqxyY6mDXdx_J-5">
          <mxGeometry y="26" width="180" height="34" as="geometry" />
        </mxCell>
        <mxCell id="ANgdTSNMqxyY6mDXdx_J-7" value="" style="line;strokeWidth=1;fillColor=none;align=left;verticalAlign=middle;spacingTop=-1;spacingLeft=3;spacingRight=3;rotatable=0;labelPosition=right;points=[];portConstraint=eastwest;strokeColor=inherit;" vertex="1" parent="ANgdTSNMqxyY6mDXdx_J-5">
          <mxGeometry y="60" width="180" height="8" as="geometry" />
        </mxCell>
        <mxCell id="ANgdTSNMqxyY6mDXdx_J-8" value="+ WinMessage(Player)&lt;br&gt;+ std::string makeString() const" style="text;strokeColor=none;fillColor=none;align=left;verticalAlign=top;spacingLeft=4;spacingRight=4;overflow=hidden;rotatable=0;points=[[0,0.5],[1,0.5]];portConstraint=eastwest;whiteSpace=wrap;html=1;" vertex="1" parent="ANgdTSNMqxyY6mDXdx_J-5">
          <mxGeometry y="68" width="180" height="52" as="geometry" />
        </mxCell>
        <mxCell id="ANgdTSNMqxyY6mDXdx_J-10" value="LooseMessage" style="swimlane;fontStyle=1;align=center;verticalAlign=top;childLayout=stackLayout;horizontal=1;startSize=26;horizontalStack=0;resizeParent=1;resizeParentMax=0;resizeLast=0;collapsible=1;marginBottom=0;whiteSpace=wrap;html=1;" vertex="1" parent="1">
          <mxGeometry x="10" y="200" width="230" height="120" as="geometry" />
        </mxCell>
        <mxCell id="ANgdTSNMqxyY6mDXdx_J-11" value="- x:int&lt;br&gt;- y:int" style="text;strokeColor=none;fillColor=none;align=left;verticalAlign=top;spacingLeft=4;spacingRight=4;overflow=hidden;rotatable=0;points=[[0,0.5],[1,0.5]];portConstraint=eastwest;whiteSpace=wrap;html=1;" vertex="1" parent="ANgdTSNMqxyY6mDXdx_J-10">
          <mxGeometry y="26" width="230" height="34" as="geometry" />
        </mxCell>
        <mxCell id="ANgdTSNMqxyY6mDXdx_J-12" value="" style="line;strokeWidth=1;fillColor=none;align=left;verticalAlign=middle;spacingTop=-1;spacingLeft=3;spacingRight=3;rotatable=0;labelPosition=right;points=[];portConstraint=eastwest;strokeColor=inherit;" vertex="1" parent="ANgdTSNMqxyY6mDXdx_J-10">
          <mxGeometry y="60" width="230" height="8" as="geometry" />
        </mxCell>
        <mxCell id="ANgdTSNMqxyY6mDXdx_J-13" value="+ WinMessage(PlayerMovement&amp;amp;)&lt;br&gt;+ std::string makeString() const" style="text;strokeColor=none;fillColor=none;align=left;verticalAlign=top;spacingLeft=4;spacingRight=4;overflow=hidden;rotatable=0;points=[[0,0.5],[1,0.5]];portConstraint=eastwest;whiteSpace=wrap;html=1;" vertex="1" parent="ANgdTSNMqxyY6mDXdx_J-10">
          <mxGeometry y="68" width="230" height="52" as="geometry" />
        </mxCell>
        <mxCell id="ANgdTSNMqxyY6mDXdx_J-15" value="NewGameMessage" style="swimlane;fontStyle=1;align=center;verticalAlign=top;childLayout=stackLayout;horizontal=1;startSize=26;horizontalStack=0;resizeParent=1;resizeParentMax=0;resizeLast=0;collapsible=1;marginBottom=0;whiteSpace=wrap;html=1;" vertex="1" parent="1">
          <mxGeometry x="10" y="330" width="230" height="150" as="geometry" />
        </mxCell>
        <mxCell id="ANgdTSNMqxyY6mDXdx_J-16" value="- fieldX:int&lt;br&gt;- fieldY:int&lt;br&gt;- startX: int&lt;br&gt;-startY:int" style="text;strokeColor=none;fillColor=none;align=left;verticalAlign=top;spacingLeft=4;spacingRight=4;overflow=hidden;rotatable=0;points=[[0,0.5],[1,0.5]];portConstraint=eastwest;whiteSpace=wrap;html=1;" vertex="1" parent="ANgdTSNMqxyY6mDXdx_J-15">
          <mxGeometry y="26" width="230" height="64" as="geometry" />
        </mxCell>
        <mxCell id="ANgdTSNMqxyY6mDXdx_J-17" value="" style="line;strokeWidth=1;fillColor=none;align=left;verticalAlign=middle;spacingTop=-1;spacingLeft=3;spacingRight=3;rotatable=0;labelPosition=right;points=[];portConstraint=eastwest;strokeColor=inherit;" vertex="1" parent="ANgdTSNMqxyY6mDXdx_J-15">
          <mxGeometry y="90" width="230" height="8" as="geometry" />
        </mxCell>
        <mxCell id="ANgdTSNMqxyY6mDXdx_J-18" value="+ NewGameMessage(Field&amp;amp;)&lt;br&gt;+ std::string makeString() const" style="text;strokeColor=none;fillColor=none;align=left;verticalAlign=top;spacingLeft=4;spacingRight=4;overflow=hidden;rotatable=0;points=[[0,0.5],[1,0.5]];portConstraint=eastwest;whiteSpace=wrap;html=1;" vertex="1" parent="ANgdTSNMqxyY6mDXdx_J-15">
          <mxGeometry y="98" width="230" height="52" as="geometry" />
        </mxCell>
        <mxCell id="ANgdTSNMqxyY6mDXdx_J-20" value="ButtonComandMessage" style="swimlane;fontStyle=1;align=center;verticalAlign=top;childLayout=stackLayout;horizontal=1;startSize=26;horizontalStack=0;resizeParent=1;resizeParentMax=0;resizeLast=0;collapsible=1;marginBottom=0;whiteSpace=wrap;html=1;" vertex="1" parent="1">
          <mxGeometry x="10" y="490" width="230" height="120" as="geometry" />
        </mxCell>
        <mxCell id="ANgdTSNMqxyY6mDXdx_J-21" value="- command:button&lt;br&gt;- key:char" style="text;strokeColor=none;fillColor=none;align=left;verticalAlign=top;spacingLeft=4;spacingRight=4;overflow=hidden;rotatable=0;points=[[0,0.5],[1,0.5]];portConstraint=eastwest;whiteSpace=wrap;html=1;" vertex="1" parent="ANgdTSNMqxyY6mDXdx_J-20">
          <mxGeometry y="26" width="230" height="34" as="geometry" />
        </mxCell>
        <mxCell id="ANgdTSNMqxyY6mDXdx_J-22" value="" style="line;strokeWidth=1;fillColor=none;align=left;verticalAlign=middle;spacingTop=-1;spacingLeft=3;spacingRight=3;rotatable=0;labelPosition=right;points=[];portConstraint=eastwest;strokeColor=inherit;" vertex="1" parent="ANgdTSNMqxyY6mDXdx_J-20">
          <mxGeometry y="60" width="230" height="8" as="geometry" />
        </mxCell>
        <mxCell id="ANgdTSNMqxyY6mDXdx_J-23" value="+ ButtonComandMessage(button)&lt;br&gt;+ std::string makeString() const" style="text;strokeColor=none;fillColor=none;align=left;verticalAlign=top;spacingLeft=4;spacingRight=4;overflow=hidden;rotatable=0;points=[[0,0.5],[1,0.5]];portConstraint=eastwest;whiteSpace=wrap;html=1;" vertex="1" parent="ANgdTSNMqxyY6mDXdx_J-20">
          <mxGeometry y="68" width="230" height="52" as="geometry" />
        </mxCell>
        <mxCell id="ANgdTSNMqxyY6mDXdx_J-24" value="ButtonMessage" style="swimlane;fontStyle=1;align=center;verticalAlign=top;childLayout=stackLayout;horizontal=1;startSize=26;horizontalStack=0;resizeParent=1;resizeParentMax=0;resizeLast=0;collapsible=1;marginBottom=0;whiteSpace=wrap;html=1;" vertex="1" parent="1">
          <mxGeometry x="10" y="620" width="230" height="120" as="geometry" />
        </mxCell>
        <mxCell id="ANgdTSNMqxyY6mDXdx_J-25" value="- key:char" style="text;strokeColor=none;fillColor=none;align=left;verticalAlign=top;spacingLeft=4;spacingRight=4;overflow=hidden;rotatable=0;points=[[0,0.5],[1,0.5]];portConstraint=eastwest;whiteSpace=wrap;html=1;" vertex="1" parent="ANgdTSNMqxyY6mDXdx_J-24">
          <mxGeometry y="26" width="230" height="34" as="geometry" />
        </mxCell>
        <mxCell id="ANgdTSNMqxyY6mDXdx_J-26" value="" style="line;strokeWidth=1;fillColor=none;align=left;verticalAlign=middle;spacingTop=-1;spacingLeft=3;spacingRight=3;rotatable=0;labelPosition=right;points=[];portConstraint=eastwest;strokeColor=inherit;" vertex="1" parent="ANgdTSNMqxyY6mDXdx_J-24">
          <mxGeometry y="60" width="230" height="8" as="geometry" />
        </mxCell>
        <mxCell id="ANgdTSNMqxyY6mDXdx_J-27" value="+ ButtonMessage(key)&lt;br&gt;+ std::string makeString() const" style="text;strokeColor=none;fillColor=none;align=left;verticalAlign=top;spacingLeft=4;spacingRight=4;overflow=hidden;rotatable=0;points=[[0,0.5],[1,0.5]];portConstraint=eastwest;whiteSpace=wrap;html=1;" vertex="1" parent="ANgdTSNMqxyY6mDXdx_J-24">
          <mxGeometry y="68" width="230" height="52" as="geometry" />
        </mxCell>
        <mxCell id="ANgdTSNMqxyY6mDXdx_J-28" value="" style="endArrow=block;dashed=1;endFill=0;endSize=12;html=1;rounded=0;exitX=1;exitY=0.5;exitDx=0;exitDy=0;entryX=-0.014;entryY=0.242;entryDx=0;entryDy=0;entryPerimeter=0;" edge="1" parent="1" source="ANgdTSNMqxyY6mDXdx_J-6" target="ANgdTSNMqxyY6mDXdx_J-4">
          <mxGeometry width="160" relative="1" as="geometry">
            <mxPoint x="370" y="240" as="sourcePoint" />
            <mxPoint x="530" y="240" as="targetPoint" />
          </mxGeometry>
        </mxCell>
        <mxCell id="ANgdTSNMqxyY6mDXdx_J-29" value="" style="endArrow=block;dashed=1;endFill=0;endSize=12;html=1;rounded=0;" edge="1" parent="1" source="ANgdTSNMqxyY6mDXdx_J-10" target="ANgdTSNMqxyY6mDXdx_J-4">
          <mxGeometry width="160" relative="1" as="geometry">
            <mxPoint x="254" y="259.40999999999997" as="sourcePoint" />
            <mxPoint x="414" y="259.40999999999997" as="targetPoint" />
          </mxGeometry>
        </mxCell>
        <mxCell id="ANgdTSNMqxyY6mDXdx_J-30" value="" style="endArrow=block;dashed=1;endFill=0;endSize=12;html=1;rounded=0;entryX=0.323;entryY=1.019;entryDx=0;entryDy=0;entryPerimeter=0;" edge="1" parent="1" source="ANgdTSNMqxyY6mDXdx_J-16" target="ANgdTSNMqxyY6mDXdx_J-4">
          <mxGeometry width="160" relative="1" as="geometry">
            <mxPoint x="450" y="380" as="sourcePoint" />
            <mxPoint x="610" y="380" as="targetPoint" />
          </mxGeometry>
        </mxCell>
        <mxCell id="ANgdTSNMqxyY6mDXdx_J-31" value="" style="endArrow=block;dashed=1;endFill=0;endSize=12;html=1;rounded=0;exitX=0.676;exitY=-0.081;exitDx=0;exitDy=0;exitPerimeter=0;" edge="1" parent="1" source="ANgdTSNMqxyY6mDXdx_J-21" target="ANgdTSNMqxyY6mDXdx_J-4">
          <mxGeometry width="160" relative="1" as="geometry">
            <mxPoint x="460" y="390" as="sourcePoint" />
            <mxPoint x="620" y="390" as="targetPoint" />
          </mxGeometry>
        </mxCell>
        <mxCell id="ANgdTSNMqxyY6mDXdx_J-32" value="" style="endArrow=block;dashed=1;endFill=0;endSize=12;html=1;rounded=0;exitX=0.983;exitY=-0.14;exitDx=0;exitDy=0;exitPerimeter=0;entryX=0.5;entryY=1.217;entryDx=0;entryDy=0;entryPerimeter=0;" edge="1" parent="1" source="ANgdTSNMqxyY6mDXdx_J-25" target="ANgdTSNMqxyY6mDXdx_J-4">
          <mxGeometry width="160" relative="1" as="geometry">
            <mxPoint x="470" y="400" as="sourcePoint" />
            <mxPoint x="630" y="400" as="targetPoint" />
          </mxGeometry>
        </mxCell>
        <mxCell id="ANgdTSNMqxyY6mDXdx_J-33" value="Output" style="swimlane;fontStyle=1;align=center;verticalAlign=top;childLayout=stackLayout;horizontal=1;startSize=26;horizontalStack=0;resizeParent=1;resizeParentMax=0;resizeLast=0;collapsible=1;marginBottom=0;whiteSpace=wrap;html=1;" vertex="1" parent="1">
          <mxGeometry x="570" y="430" width="160" height="100" as="geometry" />
        </mxCell>
        <mxCell id="ANgdTSNMqxyY6mDXdx_J-34" value="- place:int" style="text;strokeColor=none;fillColor=none;align=left;verticalAlign=top;spacingLeft=4;spacingRight=4;overflow=hidden;rotatable=0;points=[[0,0.5],[1,0.5]];portConstraint=eastwest;whiteSpace=wrap;html=1;" vertex="1" parent="ANgdTSNMqxyY6mDXdx_J-33">
          <mxGeometry y="26" width="160" height="26" as="geometry" />
        </mxCell>
        <mxCell id="ANgdTSNMqxyY6mDXdx_J-35" value="" style="line;strokeWidth=1;fillColor=none;align=left;verticalAlign=middle;spacingTop=-1;spacingLeft=3;spacingRight=3;rotatable=0;labelPosition=right;points=[];portConstraint=eastwest;strokeColor=inherit;" vertex="1" parent="ANgdTSNMqxyY6mDXdx_J-33">
          <mxGeometry y="52" width="160" height="8" as="geometry" />
        </mxCell>
        <mxCell id="ANgdTSNMqxyY6mDXdx_J-36" value="+Output(int)&lt;br&gt;+print(Message&amp;amp;):void" style="text;strokeColor=none;fillColor=none;align=left;verticalAlign=top;spacingLeft=4;spacingRight=4;overflow=hidden;rotatable=0;points=[[0,0.5],[1,0.5]];portConstraint=eastwest;whiteSpace=wrap;html=1;" vertex="1" parent="ANgdTSNMqxyY6mDXdx_J-33">
          <mxGeometry y="60" width="160" height="40" as="geometry" />
        </mxCell>
        <mxCell id="ANgdTSNMqxyY6mDXdx_J-37" value="" style="endArrow=diamondThin;endFill=0;endSize=24;html=1;rounded=0;entryX=1;entryY=0.5;entryDx=0;entryDy=0;" edge="1" parent="1" source="ANgdTSNMqxyY6mDXdx_J-33" target="ANgdTSNMqxyY6mDXdx_J-6">
          <mxGeometry width="160" relative="1" as="geometry">
            <mxPoint x="420" y="420" as="sourcePoint" />
            <mxPoint x="480" y="450" as="targetPoint" />
          </mxGeometry>
        </mxCell>
        <mxCell id="ANgdTSNMqxyY6mDXdx_J-38" value="" style="endArrow=diamondThin;endFill=0;endSize=24;html=1;rounded=0;entryX=0.783;entryY=1;entryDx=0;entryDy=0;entryPerimeter=0;" edge="1" parent="1" source="ANgdTSNMqxyY6mDXdx_J-33" target="ANgdTSNMqxyY6mDXdx_J-11">
          <mxGeometry width="160" relative="1" as="geometry">
            <mxPoint x="602" y="470" as="sourcePoint" />
            <mxPoint x="200" y="123" as="targetPoint" />
          </mxGeometry>
        </mxCell>
        <mxCell id="ANgdTSNMqxyY6mDXdx_J-39" value="" style="endArrow=diamondThin;endFill=0;endSize=24;html=1;rounded=0;" edge="1" parent="1" source="ANgdTSNMqxyY6mDXdx_J-33" target="ANgdTSNMqxyY6mDXdx_J-16">
          <mxGeometry width="160" relative="1" as="geometry">
            <mxPoint x="612" y="480" as="sourcePoint" />
            <mxPoint x="210" y="133" as="targetPoint" />
          </mxGeometry>
        </mxCell>
        <mxCell id="ANgdTSNMqxyY6mDXdx_J-40" value="" style="endArrow=diamondThin;endFill=0;endSize=24;html=1;rounded=0;" edge="1" parent="1" source="ANgdTSNMqxyY6mDXdx_J-33" target="ANgdTSNMqxyY6mDXdx_J-21">
          <mxGeometry width="160" relative="1" as="geometry">
            <mxPoint x="622" y="490" as="sourcePoint" />
            <mxPoint x="220" y="143" as="targetPoint" />
          </mxGeometry>
        </mxCell>
        <mxCell id="ANgdTSNMqxyY6mDXdx_J-41" value="" style="endArrow=diamondThin;endFill=0;endSize=24;html=1;rounded=0;entryX=0.752;entryY=0.027;entryDx=0;entryDy=0;entryPerimeter=0;" edge="1" parent="1" source="ANgdTSNMqxyY6mDXdx_J-33" target="ANgdTSNMqxyY6mDXdx_J-25">
          <mxGeometry width="160" relative="1" as="geometry">
            <mxPoint x="632" y="500" as="sourcePoint" />
            <mxPoint x="230" y="153" as="targetPoint" />
          </mxGeometry>
        </mxCell>
      </root>
    </mxGraphModel>
  </diagram>
</mxfile>
